<svg width="243" height="62" viewBox="0 0 243 62" fill="none" xmlns="http://www.w3.org/2000/svg">
<path d="M61.5526 40.4554C62.1384 39.8696 62.1384 38.9199 61.5526 38.3341L52.0067 28.7882C51.4209 28.2024 50.4712 28.2024 49.8854 28.7882C49.2996 29.374 49.2996 30.3237 49.8854 30.9095L58.3707 39.3948L49.8854 47.8801C49.2996 48.4658 49.2996 49.4156 49.8854 50.0014C50.4712 50.5872 51.4209 50.5872 52.0067 50.0014L61.5526 40.4554ZM22.3341 40.8948H60.492V37.8948H22.3341V40.8948Z" fill="#6CD348"/>
<path d="M23.3947 0.939403C22.809 0.353619 21.8592 0.353619 21.2734 0.939404L11.7275 10.4853C11.1417 11.0711 11.1417 12.0209 11.7275 12.6067C12.3133 13.1925 13.263 13.1925 13.8488 12.6067L22.3341 4.12138L30.8194 12.6067C31.4052 13.1925 32.3549 13.1925 32.9407 12.6067C33.5265 12.0209 33.5265 11.0711 32.9407 10.4853L23.3947 0.939403ZM23.8341 40.158L23.8341 2.00006L20.8341 2.00006L20.8341 40.158L23.8341 40.158Z" fill="#4891D3"/>
<path d="M0.5 60C0.5 60.8285 1.17157 61.5 2 61.5L15.5 61.5C16.3284 61.5 17 60.8285 17 60C17 59.1716 16.3284 58.5 15.5 58.5H3.5V46.5C3.5 45.6716 2.82843 45 2 45C1.17157 45 0.499999 45.6716 0.499999 46.5L0.5 60ZM21.5446 38.3341L0.939339 58.9394L3.06066 61.0607L23.6659 40.4554L21.5446 38.3341Z" fill="#D34848"/>
<path d="M95.0625 18.3281H89.7422V33H86.8008V18.3281H81.5273V15.9375H95.0625V18.3281ZM113.285 25.3828H106.277V30.6328H114.469V33H103.312V15.9375H114.387V18.3281H106.277V23.0391H113.285V25.3828ZM135.902 27.4453C135.73 29.2656 135.059 30.6875 133.887 31.7109C132.715 32.7266 131.156 33.2344 129.211 33.2344C127.852 33.2344 126.652 32.9141 125.613 32.2734C124.582 31.625 123.785 30.707 123.223 29.5195C122.66 28.332 122.367 26.9531 122.344 25.3828V23.7891C122.344 22.1797 122.629 20.7617 123.199 19.5352C123.77 18.3086 124.586 17.3633 125.648 16.6992C126.719 16.0352 127.953 15.7031 129.352 15.7031C131.234 15.7031 132.75 16.2148 133.898 17.2383C135.047 18.2617 135.715 19.707 135.902 21.5742H132.949C132.809 20.3477 132.449 19.4648 131.871 18.9258C131.301 18.3789 130.461 18.1055 129.352 18.1055C128.062 18.1055 127.07 18.5781 126.375 19.5234C125.688 20.4609 125.336 21.8398 125.32 23.6602V25.1719C125.32 27.0156 125.648 28.4219 126.305 29.3906C126.969 30.3594 127.938 30.8438 129.211 30.8438C130.375 30.8438 131.25 30.582 131.836 30.0586C132.422 29.5352 132.793 28.6641 132.949 27.4453H135.902ZM156.539 18.3281H151.219V33H148.277V18.3281H143.004V15.9375H156.539V18.3281ZM178.078 24.9141C178.078 26.5859 177.789 28.0547 177.211 29.3203C176.633 30.5781 175.805 31.5469 174.727 32.2266C173.656 32.8984 172.422 33.2344 171.023 33.2344C169.641 33.2344 168.406 32.8984 167.32 32.2266C166.242 31.5469 165.406 30.582 164.812 29.332C164.227 28.082 163.93 26.6406 163.922 25.0078V24.0469C163.922 22.3828 164.215 20.9141 164.801 19.6406C165.395 18.3672 166.227 17.3945 167.297 16.7227C168.375 16.043 169.609 15.7031 171 15.7031C172.391 15.7031 173.621 16.0391 174.691 16.7109C175.77 17.375 176.602 18.3359 177.188 19.5938C177.773 20.8438 178.07 22.3008 178.078 23.9648V24.9141ZM175.113 24.0234C175.113 22.1328 174.754 20.6836 174.035 19.6758C173.324 18.668 172.312 18.1641 171 18.1641C169.719 18.1641 168.715 18.668 167.988 19.6758C167.27 20.6758 166.902 22.0938 166.887 23.9297V24.9141C166.887 26.7891 167.25 28.2383 167.977 29.2617C168.711 30.2852 169.727 30.7969 171.023 30.7969C172.336 30.7969 173.344 30.2969 174.047 29.2969C174.758 28.2969 175.113 26.8359 175.113 24.9141V24.0234ZM187.031 33V15.9375H192.879C194.809 15.9375 196.277 16.3242 197.285 17.0977C198.293 17.8711 198.797 19.0234 198.797 20.5547C198.797 21.3359 198.586 22.0391 198.164 22.6641C197.742 23.2891 197.125 23.7734 196.312 24.1172C197.234 24.3672 197.945 24.8398 198.445 25.5352C198.953 26.2227 199.207 27.0508 199.207 28.0195C199.207 29.6211 198.691 30.8516 197.66 31.7109C196.637 32.5703 195.168 33 193.254 33H187.031ZM189.996 25.3008V30.6328H193.289C194.219 30.6328 194.945 30.4023 195.469 29.9414C195.992 29.4805 196.254 28.8398 196.254 28.0195C196.254 26.2461 195.348 25.3398 193.535 25.3008H189.996ZM189.996 23.1211H192.902C193.824 23.1211 194.543 22.9141 195.059 22.5C195.582 22.0781 195.844 21.4844 195.844 20.7188C195.844 19.875 195.602 19.2656 195.117 18.8906C194.641 18.5156 193.895 18.3281 192.879 18.3281H189.996V23.1211ZM221.789 24.9141C221.789 26.5859 221.5 28.0547 220.922 29.3203C220.344 30.5781 219.516 31.5469 218.438 32.2266C217.367 32.8984 216.133 33.2344 214.734 33.2344C213.352 33.2344 212.117 32.8984 211.031 32.2266C209.953 31.5469 209.117 30.582 208.523 29.332C207.938 28.082 207.641 26.6406 207.633 25.0078V24.0469C207.633 22.3828 207.926 20.9141 208.512 19.6406C209.105 18.3672 209.938 17.3945 211.008 16.7227C212.086 16.043 213.32 15.7031 214.711 15.7031C216.102 15.7031 217.332 16.0391 218.402 16.7109C219.48 17.375 220.312 18.3359 220.898 19.5938C221.484 20.8438 221.781 22.3008 221.789 23.9648V24.9141ZM218.824 24.0234C218.824 22.1328 218.465 20.6836 217.746 19.6758C217.035 18.668 216.023 18.1641 214.711 18.1641C213.43 18.1641 212.426 18.668 211.699 19.6758C210.98 20.6758 210.613 22.0938 210.598 23.9297V24.9141C210.598 26.7891 210.961 28.2383 211.688 29.2617C212.422 30.2852 213.438 30.7969 214.734 30.7969C216.047 30.7969 217.055 30.2969 217.758 29.2969C218.469 28.2969 218.824 26.8359 218.824 24.9141V24.0234ZM240.715 25.3828H233.707V30.6328H241.898V33H230.742V15.9375H241.816V18.3281H233.707V23.0391H240.715V25.3828Z" fill="white"/>
<path d="M82.958 47.0137H86.1855V48H81.7227V40.8906H82.958V47.0137ZM86.7959 45.3096C86.7959 44.792 86.8984 44.3265 87.1035 43.9131C87.3086 43.4964 87.5967 43.1774 87.9678 42.9561C88.3389 42.7314 88.7653 42.6191 89.2471 42.6191C89.96 42.6191 90.5378 42.8486 90.9805 43.3076C91.4264 43.7666 91.6673 44.3753 91.7031 45.1338L91.708 45.4121C91.708 45.9329 91.6071 46.3984 91.4053 46.8086C91.2067 47.2188 90.9202 47.5361 90.5459 47.7607C90.1748 47.9854 89.7451 48.0977 89.2568 48.0977C88.5114 48.0977 87.9141 47.8503 87.4648 47.3555C87.0189 46.8574 86.7959 46.195 86.7959 45.3682V45.3096ZM87.9824 45.4121C87.9824 45.9557 88.0947 46.3822 88.3193 46.6914C88.5439 46.9974 88.8564 47.1504 89.2568 47.1504C89.6572 47.1504 89.9681 46.9941 90.1895 46.6816C90.4141 46.3691 90.5264 45.9118 90.5264 45.3096C90.5264 44.7757 90.4108 44.3525 90.1797 44.04C89.9518 43.7275 89.641 43.5713 89.2471 43.5713C88.8597 43.5713 88.5521 43.7259 88.3242 44.0352C88.0964 44.3411 87.9824 44.8001 87.9824 45.4121ZM95.4775 43.8008C95.3213 43.7747 95.1602 43.7617 94.9941 43.7617C94.4505 43.7617 94.0843 43.9701 93.8955 44.3867V48H92.709V42.7168H93.8418L93.8711 43.3076C94.1576 42.8486 94.5547 42.6191 95.0625 42.6191C95.2318 42.6191 95.3717 42.6419 95.4824 42.6875L95.4775 43.8008ZM98.4561 48.0977C97.7041 48.0977 97.0938 47.8617 96.625 47.3896C96.1595 46.9144 95.9268 46.2829 95.9268 45.4951V45.3486C95.9268 44.8213 96.0277 44.3509 96.2295 43.9375C96.4346 43.5208 96.721 43.1969 97.0889 42.9658C97.4567 42.7347 97.8669 42.6191 98.3193 42.6191C99.0387 42.6191 99.5938 42.8486 99.9844 43.3076C100.378 43.7666 100.575 44.416 100.575 45.2559V45.7344H97.123C97.1589 46.1706 97.3037 46.5156 97.5576 46.7695C97.8148 47.0234 98.137 47.1504 98.5244 47.1504C99.068 47.1504 99.5107 46.9307 99.8525 46.4912L100.492 47.1016C100.281 47.4173 99.9974 47.6631 99.6426 47.8389C99.291 48.0114 98.8955 48.0977 98.4561 48.0977ZM98.3145 43.5713C97.9889 43.5713 97.7253 43.6852 97.5234 43.9131C97.3249 44.141 97.1979 44.4583 97.1426 44.8652H99.4033V44.7773C99.3773 44.3802 99.2715 44.0807 99.0859 43.8789C98.9004 43.6738 98.6432 43.5713 98.3145 43.5713ZM102.616 42.7168L102.65 43.2686C103.021 42.8356 103.529 42.6191 104.174 42.6191C104.88 42.6191 105.364 42.8893 105.624 43.4297C106.008 42.8893 106.549 42.6191 107.245 42.6191C107.828 42.6191 108.261 42.7803 108.544 43.1025C108.83 43.4248 108.977 43.9001 108.983 44.5283V48H107.797V44.5625C107.797 44.2272 107.724 43.9814 107.577 43.8252C107.431 43.6689 107.188 43.5908 106.85 43.5908C106.579 43.5908 106.358 43.6641 106.186 43.8105C106.016 43.9538 105.897 44.1426 105.829 44.377L105.834 48H104.647V44.5234C104.631 43.9017 104.314 43.5908 103.695 43.5908C103.22 43.5908 102.883 43.7845 102.685 44.1719V48H101.498V42.7168H102.616ZM113.954 48H112.768V42.7168H113.954V48ZM112.694 41.3447C112.694 41.1624 112.751 41.0111 112.865 40.8906C112.982 40.7702 113.148 40.71 113.363 40.71C113.578 40.71 113.744 40.7702 113.861 40.8906C113.979 41.0111 114.037 41.1624 114.037 41.3447C114.037 41.5238 113.979 41.6735 113.861 41.7939C113.744 41.9111 113.578 41.9697 113.363 41.9697C113.148 41.9697 112.982 41.9111 112.865 41.7939C112.751 41.6735 112.694 41.5238 112.694 41.3447ZM119.877 45.4121C119.877 46.2292 119.691 46.8818 119.32 47.3701C118.949 47.8551 118.451 48.0977 117.826 48.0977C117.247 48.0977 116.783 47.9072 116.435 47.5264V50.0312H115.248V42.7168H116.342L116.391 43.2539C116.739 42.8307 117.213 42.6191 117.812 42.6191C118.456 42.6191 118.961 42.86 119.325 43.3418C119.693 43.8203 119.877 44.486 119.877 45.3389V45.4121ZM118.695 45.3096C118.695 44.7822 118.59 44.3639 118.378 44.0547C118.17 43.7454 117.87 43.5908 117.479 43.5908C116.994 43.5908 116.646 43.791 116.435 44.1914V46.5352C116.649 46.9453 117.001 47.1504 117.489 47.1504C117.867 47.1504 118.161 46.999 118.373 46.6963C118.588 46.3903 118.695 45.9281 118.695 45.3096ZM123.847 46.5645C123.847 46.3529 123.759 46.1917 123.583 46.0811C123.41 45.9704 123.122 45.8727 122.719 45.7881C122.315 45.7035 121.978 45.596 121.708 45.4658C121.116 45.1794 120.819 44.7643 120.819 44.2207C120.819 43.765 121.011 43.3841 121.396 43.0781C121.78 42.7721 122.268 42.6191 122.86 42.6191C123.492 42.6191 124.001 42.7754 124.389 43.0879C124.779 43.4004 124.975 43.8057 124.975 44.3037H123.788C123.788 44.0758 123.703 43.887 123.534 43.7373C123.365 43.5843 123.14 43.5078 122.86 43.5078C122.6 43.5078 122.387 43.568 122.221 43.6885C122.058 43.8089 121.977 43.9701 121.977 44.1719C121.977 44.3542 122.053 44.4958 122.206 44.5967C122.359 44.6976 122.668 44.8001 123.134 44.9043C123.599 45.0052 123.964 45.1273 124.228 45.2705C124.494 45.4105 124.691 45.5798 124.818 45.7783C124.949 45.9769 125.014 46.2178 125.014 46.501C125.014 46.9762 124.817 47.362 124.423 47.6582C124.029 47.9512 123.513 48.0977 122.875 48.0977C122.442 48.0977 122.056 48.0195 121.718 47.8633C121.379 47.707 121.116 47.4922 120.927 47.2188C120.738 46.9453 120.644 46.6507 120.644 46.335H121.796C121.812 46.6149 121.918 46.8314 122.113 46.9844C122.309 47.1341 122.567 47.209 122.89 47.209C123.202 47.209 123.44 47.1504 123.603 47.0332C123.765 46.9128 123.847 46.7565 123.847 46.5645ZM129.252 47.4824C128.904 47.8926 128.409 48.0977 127.768 48.0977C127.195 48.0977 126.76 47.93 126.464 47.5947C126.171 47.2594 126.024 46.7744 126.024 46.1396V42.7168H127.211V46.125C127.211 46.7956 127.489 47.1309 128.046 47.1309C128.622 47.1309 129.011 46.9242 129.213 46.5107V42.7168H130.399V48H129.281L129.252 47.4824ZM132.724 42.7168L132.758 43.2686C133.129 42.8356 133.637 42.6191 134.281 42.6191C134.988 42.6191 135.471 42.8893 135.731 43.4297C136.116 42.8893 136.656 42.6191 137.353 42.6191C137.935 42.6191 138.368 42.7803 138.651 43.1025C138.938 43.4248 139.084 43.9001 139.091 44.5283V48H137.904V44.5625C137.904 44.2272 137.831 43.9814 137.685 43.8252C137.538 43.6689 137.296 43.5908 136.957 43.5908C136.687 43.5908 136.465 43.6641 136.293 43.8105C136.124 43.9538 136.005 44.1426 135.937 44.377L135.941 48H134.755V44.5234C134.739 43.9017 134.421 43.5908 133.803 43.5908C133.327 43.5908 132.991 43.7845 132.792 44.1719V48H131.605V42.7168H132.724ZM142.577 45.3193C142.577 44.5055 142.766 43.8529 143.144 43.3613C143.521 42.8665 144.027 42.6191 144.662 42.6191C145.222 42.6191 145.674 42.8145 146.02 43.2051V40.5H147.206V48H146.132L146.073 47.4531C145.718 47.8828 145.245 48.0977 144.652 48.0977C144.034 48.0977 143.533 47.8486 143.148 47.3506C142.768 46.8525 142.577 46.1755 142.577 45.3193ZM143.764 45.4219C143.764 45.959 143.866 46.3789 144.071 46.6816C144.28 46.9811 144.574 47.1309 144.955 47.1309C145.44 47.1309 145.795 46.9144 146.02 46.4814V44.2256C145.801 43.8024 145.45 43.5908 144.965 43.5908C144.581 43.5908 144.285 43.7438 144.076 44.0498C143.868 44.3525 143.764 44.8099 143.764 45.4219ZM148.222 45.3096C148.222 44.792 148.324 44.3265 148.529 43.9131C148.734 43.4964 149.022 43.1774 149.394 42.9561C149.765 42.7314 150.191 42.6191 150.673 42.6191C151.386 42.6191 151.964 42.8486 152.406 43.3076C152.852 43.7666 153.093 44.3753 153.129 45.1338L153.134 45.4121C153.134 45.9329 153.033 46.3984 152.831 46.8086C152.632 47.2188 152.346 47.5361 151.972 47.7607C151.601 47.9854 151.171 48.0977 150.683 48.0977C149.937 48.0977 149.34 47.8503 148.891 47.3555C148.445 46.8574 148.222 46.195 148.222 45.3682V45.3096ZM149.408 45.4121C149.408 45.9557 149.521 46.3822 149.745 46.6914C149.97 46.9974 150.282 47.1504 150.683 47.1504C151.083 47.1504 151.394 46.9941 151.615 46.6816C151.84 46.3691 151.952 45.9118 151.952 45.3096C151.952 44.7757 151.837 44.3525 151.605 44.04C151.378 43.7275 151.067 43.5713 150.673 43.5713C150.285 43.5713 149.978 43.7259 149.75 44.0352C149.522 44.3411 149.408 44.8001 149.408 45.4121ZM155.399 48H154.213V40.5H155.399V48ZM156.474 45.3096C156.474 44.792 156.576 44.3265 156.781 43.9131C156.986 43.4964 157.274 43.1774 157.646 42.9561C158.017 42.7314 158.443 42.6191 158.925 42.6191C159.638 42.6191 160.215 42.8486 160.658 43.3076C161.104 43.7666 161.345 44.3753 161.381 45.1338L161.386 45.4121C161.386 45.9329 161.285 46.3984 161.083 46.8086C160.884 47.2188 160.598 47.5361 160.224 47.7607C159.853 47.9854 159.423 48.0977 158.935 48.0977C158.189 48.0977 157.592 47.8503 157.143 47.3555C156.697 46.8574 156.474 46.195 156.474 45.3682V45.3096ZM157.66 45.4121C157.66 45.9557 157.772 46.3822 157.997 46.6914C158.222 46.9974 158.534 47.1504 158.935 47.1504C159.335 47.1504 159.646 46.9941 159.867 46.6816C160.092 46.3691 160.204 45.9118 160.204 45.3096C160.204 44.7757 160.089 44.3525 159.857 44.04C159.63 43.7275 159.319 43.5713 158.925 43.5713C158.537 43.5713 158.23 43.7259 158.002 44.0352C157.774 44.3411 157.66 44.8001 157.66 45.4121ZM165.155 43.8008C164.999 43.7747 164.838 43.7617 164.672 43.7617C164.128 43.7617 163.762 43.9701 163.573 44.3867V48H162.387V42.7168H163.52L163.549 43.3076C163.835 42.8486 164.232 42.6191 164.74 42.6191C164.91 42.6191 165.049 42.6419 165.16 42.6875L165.155 43.8008ZM171.356 46.5645C171.356 46.3529 171.269 46.1917 171.093 46.0811C170.92 45.9704 170.632 45.8727 170.229 45.7881C169.825 45.7035 169.488 45.596 169.218 45.4658C168.625 45.1794 168.329 44.7643 168.329 44.2207C168.329 43.765 168.521 43.3841 168.905 43.0781C169.289 42.7721 169.778 42.6191 170.37 42.6191C171.002 42.6191 171.511 42.7754 171.898 43.0879C172.289 43.4004 172.484 43.8057 172.484 44.3037H171.298C171.298 44.0758 171.213 43.887 171.044 43.7373C170.875 43.5843 170.65 43.5078 170.37 43.5078C170.11 43.5078 169.896 43.568 169.73 43.6885C169.568 43.8089 169.486 43.9701 169.486 44.1719C169.486 44.3542 169.563 44.4958 169.716 44.5967C169.869 44.6976 170.178 44.8001 170.644 44.9043C171.109 45.0052 171.474 45.1273 171.737 45.2705C172.004 45.4105 172.201 45.5798 172.328 45.7783C172.458 45.9769 172.523 46.2178 172.523 46.501C172.523 46.9762 172.326 47.362 171.933 47.6582C171.539 47.9512 171.023 48.0977 170.385 48.0977C169.952 48.0977 169.566 48.0195 169.228 47.8633C168.889 47.707 168.625 47.4922 168.437 47.2188C168.248 46.9453 168.153 46.6507 168.153 46.335H169.306C169.322 46.6149 169.428 46.8314 169.623 46.9844C169.818 47.1341 170.077 47.209 170.399 47.209C170.712 47.209 170.95 47.1504 171.112 47.0332C171.275 46.9128 171.356 46.7565 171.356 46.5645ZM174.823 48H173.637V42.7168H174.823V48ZM173.563 41.3447C173.563 41.1624 173.62 41.0111 173.734 40.8906C173.852 40.7702 174.018 40.71 174.232 40.71C174.447 40.71 174.613 40.7702 174.73 40.8906C174.848 41.0111 174.906 41.1624 174.906 41.3447C174.906 41.5238 174.848 41.6735 174.73 41.7939C174.613 41.9111 174.447 41.9697 174.232 41.9697C174.018 41.9697 173.852 41.9111 173.734 41.7939C173.62 41.6735 173.563 41.5238 173.563 41.3447ZM177.606 41.4326V42.7168H178.539V43.5957H177.606V46.5449C177.606 46.7467 177.646 46.8932 177.724 46.9844C177.805 47.0723 177.948 47.1162 178.153 47.1162C178.29 47.1162 178.428 47.0999 178.568 47.0674V47.9854C178.298 48.0602 178.038 48.0977 177.787 48.0977C176.876 48.0977 176.42 47.5947 176.42 46.5889V43.5957H175.551V42.7168H176.42V41.4326H177.606ZM185.097 48C185.045 47.8991 184.999 47.7347 184.96 47.5068C184.582 47.9007 184.12 48.0977 183.573 48.0977C183.043 48.0977 182.61 47.9463 182.274 47.6436C181.939 47.3408 181.771 46.9665 181.771 46.5205C181.771 45.9574 181.98 45.526 182.396 45.2266C182.816 44.9238 183.415 44.7725 184.193 44.7725H184.921V44.4258C184.921 44.1523 184.844 43.9342 184.691 43.7715C184.538 43.6055 184.306 43.5225 183.993 43.5225C183.723 43.5225 183.502 43.5908 183.329 43.7275C183.157 43.861 183.07 44.0319 183.07 44.2402H181.884C181.884 43.9505 181.98 43.6803 182.172 43.4297C182.364 43.1758 182.624 42.9772 182.953 42.834C183.285 42.6908 183.655 42.6191 184.062 42.6191C184.68 42.6191 185.173 42.7754 185.541 43.0879C185.909 43.3971 186.098 43.8333 186.107 44.3965V46.7793C186.107 47.2546 186.174 47.6338 186.308 47.917V48H185.097ZM183.793 47.1455C184.027 47.1455 184.247 47.0885 184.452 46.9746C184.66 46.8607 184.817 46.7077 184.921 46.5156V45.5195H184.281C183.842 45.5195 183.511 45.596 183.29 45.749C183.069 45.902 182.958 46.1185 182.958 46.3984C182.958 46.6263 183.033 46.8086 183.183 46.9453C183.336 47.0788 183.539 47.1455 183.793 47.1455ZM188.466 42.7168L188.5 43.2686C188.871 42.8356 189.379 42.6191 190.023 42.6191C190.73 42.6191 191.213 42.8893 191.474 43.4297C191.858 42.8893 192.398 42.6191 193.095 42.6191C193.677 42.6191 194.11 42.7803 194.394 43.1025C194.68 43.4248 194.826 43.9001 194.833 44.5283V48H193.646V44.5625C193.646 44.2272 193.573 43.9814 193.427 43.8252C193.28 43.6689 193.038 43.5908 192.699 43.5908C192.429 43.5908 192.208 43.6641 192.035 43.8105C191.866 43.9538 191.747 44.1426 191.679 44.377L191.684 48H190.497V44.5234C190.481 43.9017 190.163 43.5908 189.545 43.5908C189.07 43.5908 188.733 43.7845 188.534 44.1719V48H187.348V42.7168H188.466ZM198.378 48.0977C197.626 48.0977 197.016 47.8617 196.547 47.3896C196.081 46.9144 195.849 46.2829 195.849 45.4951V45.3486C195.849 44.8213 195.95 44.3509 196.151 43.9375C196.356 43.5208 196.643 43.1969 197.011 42.9658C197.379 42.7347 197.789 42.6191 198.241 42.6191C198.961 42.6191 199.516 42.8486 199.906 43.3076C200.3 43.7666 200.497 44.416 200.497 45.2559V45.7344H197.045C197.081 46.1706 197.226 46.5156 197.479 46.7695C197.737 47.0234 198.059 47.1504 198.446 47.1504C198.99 47.1504 199.433 46.9307 199.774 46.4912L200.414 47.1016C200.202 47.4173 199.919 47.6631 199.564 47.8389C199.213 48.0114 198.817 48.0977 198.378 48.0977ZM198.236 43.5713C197.911 43.5713 197.647 43.6852 197.445 43.9131C197.247 44.141 197.12 44.4583 197.064 44.8652H199.325V44.7773C199.299 44.3802 199.193 44.0807 199.008 43.8789C198.822 43.6738 198.565 43.5713 198.236 43.5713ZM202.909 41.4326V42.7168H203.842V43.5957H202.909V46.5449C202.909 46.7467 202.948 46.8932 203.026 46.9844C203.108 47.0723 203.251 47.1162 203.456 47.1162C203.593 47.1162 203.731 47.0999 203.871 47.0674V47.9854C203.601 48.0602 203.34 48.0977 203.09 48.0977C202.178 48.0977 201.723 47.5947 201.723 46.5889V43.5957H200.854V42.7168H201.723V41.4326H202.909Z" fill="white"/>
</svg>
